<svg width="88" height="35" viewBox="0 0 88 35" fill="none" xmlns="http://www.w3.org/2000/svg">
<path d="M3.744 34.608C2.72 34.608 1.872 34.4 1.2 33.984C0.528 33.568 0.144 32.992 0.0479997 32.256C0.0159997 32.096 -2.38419e-07 31.936 -2.38419e-07 31.776C-2.38419e-07 31.648 -2.38419e-07 31.504 -2.38419e-07 31.344C-2.38419e-07 30.16 0.224 28.768 0.672 27.168C1.12 25.568 1.696 23.904 2.4 22.176C3.104 20.448 3.824 18.832 4.56 17.328C4.816 16.784 5.168 16 5.616 14.976C6.096 13.952 6.56 12.88 7.008 11.76C7.488 10.608 7.888 9.6 8.208 8.736C8.528 7.84 8.656 7.248 8.592 6.96V6.72C8.592 6.336 8.896 6.144 9.504 6.144C10.208 6.144 10.896 6.288 11.568 6.576C12.24 6.896 12.752 7.344 13.104 7.92C13.456 8.496 13.632 9.104 13.632 9.744C13.632 10.256 13.504 10.8 13.248 11.376L11.904 14.208C12.32 13.536 12.8 12.784 13.344 11.952C13.888 11.12 14.432 10.304 14.976 9.504C15.552 8.672 16.048 7.968 16.464 7.392C16.912 6.784 17.232 6.4 17.424 6.24C17.712 5.984 18.096 5.856 18.576 5.856C18.928 5.856 19.296 5.92 19.68 6.048C20.064 6.144 20.48 6.272 20.928 6.432C21.376 6.592 21.68 6.896 21.84 7.344C22.032 7.76 22.128 8.272 22.128 8.88C22.128 9.648 21.968 10.608 21.648 11.76C21.36 12.88 20.96 14.096 20.448 15.408C19.936 16.688 19.36 17.968 18.72 19.248C18.08 20.528 17.424 21.68 16.752 22.704C17.456 22.736 18.128 22.64 18.768 22.416C19.44 22.192 20.032 21.808 20.544 21.264C21.184 20.56 21.76 19.696 22.272 18.672C22.816 17.616 23.296 16.672 23.712 15.84C23.808 15.648 23.952 15.552 24.144 15.552C24.368 15.552 24.56 15.664 24.72 15.888C24.88 16.112 24.896 16.352 24.768 16.608C24.448 17.248 24.064 18 23.616 18.864C23.2 19.696 22.736 20.496 22.224 21.264C21.712 22.032 21.152 22.64 20.544 23.088C20.032 23.504 19.52 23.776 19.008 23.904C18.496 24.032 17.968 24.096 17.424 24.096C17.168 24.096 16.912 24.096 16.656 24.096C16.4 24.064 16.128 24.032 15.84 24C15.328 24.672 14.848 25.184 14.4 25.536C13.92 25.888 13.408 26.176 12.864 26.4C12.32 26.624 11.728 26.736 11.088 26.736C9.232 26.736 7.968 25.728 7.296 23.712C6.72 25.152 6.224 26.576 5.808 27.984C5.392 29.392 5.104 30.704 4.944 31.92C4.912 32.08 4.88 32.24 4.848 32.4C4.848 32.592 4.848 32.768 4.848 32.928C4.848 33.536 4.976 33.92 5.232 34.08C5.264 34.112 5.28 34.16 5.28 34.224C5.28 34.448 5.072 34.56 4.656 34.56C4.496 34.592 4.336 34.608 4.176 34.608C4.048 34.608 3.904 34.608 3.744 34.608ZM12 21.6C12.448 20.8 12.864 19.92 13.248 18.96C13.632 17.968 13.984 17.008 14.304 16.08C14.624 15.152 14.88 14.352 15.072 13.68C15.296 12.976 15.44 12.512 15.504 12.288C15.632 11.84 15.728 11.44 15.792 11.088C15.888 10.704 15.952 10.384 15.984 10.128C15.44 10.832 14.768 11.776 13.968 12.96C13.168 14.144 12.336 15.392 11.472 16.704C10.64 18.016 9.872 19.248 9.168 20.4L11.76 21.504C11.824 21.568 11.904 21.6 12 21.6ZM9.504 24.096C9.792 24.096 10.08 23.984 10.368 23.76C10.656 23.504 10.96 23.168 11.28 22.752C10.8 22.528 10.336 22.304 9.888 22.08C9.472 21.824 9.04 21.568 8.592 21.312L8.16 22.032C8.224 22.288 8.304 22.544 8.4 22.8C8.496 23.056 8.608 23.296 8.736 23.52C8.992 23.904 9.248 24.096 9.504 24.096ZM34.983 26.688C33.575 26.688 32.567 26.192 31.959 25.2C31.351 24.208 31.063 23.056 31.095 21.744C30.103 23.6 29.079 24.864 28.023 25.536C26.999 26.176 25.959 26.496 24.903 26.496C23.623 26.496 22.743 26.16 22.263 25.488C21.783 24.816 21.543 24.016 21.543 23.088C21.543 22.352 21.623 21.616 21.783 20.88C21.975 20.112 22.183 19.408 22.407 18.768C22.823 17.552 23.271 16.32 23.751 15.072C24.263 13.792 24.759 12.64 25.239 11.616C25.719 10.592 26.087 9.84 26.343 9.36C26.983 8.208 27.703 7.424 28.503 7.008C29.303 6.56 30.119 6.336 30.951 6.336C31.207 6.336 31.463 6.352 31.719 6.384C32.007 6.416 32.263 6.464 32.487 6.528C32.903 6.624 33.223 6.72 33.447 6.816C33.671 6.88 33.783 7.008 33.783 7.2C33.783 7.296 33.735 7.44 33.639 7.632C33.191 8.4 32.631 9.392 31.959 10.608C31.319 11.792 30.663 13.072 29.991 14.448C29.319 15.824 28.711 17.184 28.167 18.528C27.655 19.84 27.287 21.024 27.063 22.08C27.031 22.24 26.999 22.384 26.967 22.512C26.967 22.64 26.967 22.768 26.967 22.896C26.967 23.44 27.175 23.712 27.591 23.712C28.007 23.712 28.455 23.392 28.935 22.752C29.415 22.112 29.879 21.344 30.327 20.448C30.807 19.552 31.207 18.736 31.527 18C31.879 17.232 32.103 16.752 32.199 16.56C32.743 15.44 33.223 14.368 33.639 13.344C34.087 12.288 34.567 11.264 35.079 10.272C35.783 8.864 36.503 7.824 37.239 7.152C37.975 6.48 38.743 6.08 39.543 5.952C39.799 5.888 40.039 5.856 40.263 5.856C40.519 5.856 40.759 5.856 40.983 5.856C41.527 5.856 42.007 5.872 42.423 5.904C42.871 5.936 43.191 5.968 43.383 6C43.927 6.032 44.199 6.192 44.199 6.48C44.199 6.832 43.959 7.04 43.479 7.104C43.159 7.136 42.727 7.552 42.183 8.352C41.671 9.12 41.127 10.032 40.551 11.088C39.655 12.752 38.791 14.544 37.959 16.464C37.127 18.352 36.535 20.256 36.183 22.176C36.151 22.4 36.119 22.608 36.087 22.8C36.087 22.96 36.087 23.12 36.087 23.28C36.087 24.08 36.295 24.48 36.711 24.48C37.223 24.48 37.751 24.208 38.295 23.664C38.839 23.12 39.367 22.464 39.879 21.696C40.327 21.024 40.775 20.272 41.223 19.44C41.671 18.608 42.071 17.84 42.423 17.136C42.775 16.4 43.031 15.888 43.191 15.6C43.287 15.408 43.415 15.312 43.575 15.312C43.767 15.312 43.943 15.456 44.103 15.744C44.263 16 44.279 16.256 44.151 16.512C43.543 17.696 42.887 18.96 42.183 20.304C41.479 21.648 40.711 22.864 39.879 23.952C38.471 25.776 36.839 26.688 34.983 26.688ZM47.0464 26.736C45.7344 26.736 44.6944 26.544 43.9264 26.16C43.1904 25.776 42.6464 25.216 42.2944 24.48C41.9744 23.744 41.8144 22.88 41.8144 21.888C41.8144 20.192 42.1984 18.272 42.9664 16.128C43.7664 13.984 44.6944 11.936 45.7504 9.984C46.1664 9.216 46.6624 8.32 47.2384 7.296C47.8464 6.24 48.5184 5.2 49.2544 4.176C50.0224 3.152 50.8224 2.272 51.6544 1.536C52.5184 0.768 53.3984 0.303999 54.2944 0.143999C54.8384 0.0480003 55.3664 9.53674e-07 55.8784 9.53674e-07C56.7104 9.53674e-07 57.3344 0.0800009 57.7504 0.240001C58.4864 0.528001 58.8544 0.816001 58.8544 1.104C58.8544 1.296 58.6944 1.392 58.3744 1.392C58.2464 1.392 58.0704 1.472 57.8464 1.632C57.6224 1.76 57.4144 1.92 57.2224 2.112C55.8144 3.52 54.2624 5.616 52.5664 8.4C51.1904 10.64 50.0384 12.848 49.1104 15.024C48.1824 17.168 47.4944 19.376 47.0464 21.648C46.9504 22.224 46.9024 22.704 46.9024 23.088C46.9024 23.76 47.0144 24.24 47.2384 24.528C47.4624 24.816 47.7344 24.96 48.0544 24.96C48.6944 24.96 49.4304 24.592 50.2624 23.856C51.1264 23.12 51.8144 22.32 52.3264 21.456C52.9984 20.528 53.5904 19.568 54.1024 18.576C54.6464 17.552 55.0944 16.688 55.4464 15.984C55.5744 15.76 55.7504 15.648 55.9744 15.648C56.1664 15.648 56.3424 15.744 56.5024 15.936C56.6624 16.128 56.6784 16.352 56.5504 16.608C56.0704 17.568 55.4624 18.704 54.7264 20.016C54.0224 21.328 53.2384 22.496 52.3744 23.52C51.5744 24.48 50.7104 25.264 49.7824 25.872C48.8864 26.448 47.9744 26.736 47.0464 26.736ZM59.7551 26.736C57.8031 26.736 56.1871 26.16 54.9071 25.008C53.6271 23.856 52.9871 22.256 52.9871 20.208C52.9871 19.504 53.0671 18.768 53.2271 18C53.3871 17.232 53.6431 16.576 53.9951 16.032C54.3471 15.488 54.8111 15.216 55.3871 15.216C55.7391 15.216 55.9951 15.328 56.1551 15.552C56.5391 14.816 56.9551 14.08 57.4031 13.344C57.8511 12.608 58.2991 11.856 58.7471 11.088C59.2591 10.256 59.8511 9.344 60.5231 8.352C61.2271 7.328 62.0271 6.432 62.9231 5.664C63.8191 4.864 64.7951 4.416 65.8511 4.32C65.9791 4.288 66.1071 4.272 66.2351 4.272C66.3951 4.272 66.5391 4.272 66.6671 4.272C67.0191 4.272 67.3871 4.288 67.7711 4.32C68.1551 4.352 68.4431 4.384 68.6351 4.416C68.6991 4.448 68.7471 4.544 68.7791 4.704C68.8111 4.864 68.7311 4.944 68.5391 4.944C68.4111 4.944 68.1551 5.04 67.7711 5.232C67.3871 5.392 67.1631 5.792 67.0991 6.432C67.0351 8.672 66.8911 10.912 66.6671 13.152C66.4751 15.392 66.1711 17.264 65.7551 18.768C65.5631 19.536 65.2591 20.368 64.8431 21.264C64.4271 22.16 63.9311 22.96 63.3551 23.664C62.7791 24.368 62.1711 24.848 61.5311 25.104C62.1711 25.104 62.8431 24.912 63.5471 24.528C64.2831 24.112 64.9551 23.616 65.5631 23.04C66.2031 22.464 66.6831 21.952 67.0031 21.504C67.7071 20.512 68.3471 19.472 68.9231 18.384C69.5311 17.264 69.9791 16.4 70.2671 15.792C70.3631 15.632 70.4751 15.552 70.6031 15.552C70.7631 15.552 70.9071 15.648 71.0351 15.84C71.1631 16.032 71.2271 16.24 71.2271 16.464C71.2271 16.528 71.2111 16.592 71.1791 16.656C71.1791 16.72 71.1631 16.784 71.1311 16.848C70.5551 18 69.9151 19.168 69.2111 20.352C68.5391 21.504 67.7551 22.576 66.8591 23.568C65.9631 24.528 64.9391 25.296 63.7871 25.872C62.6351 26.448 61.2911 26.736 59.7551 26.736ZM56.6351 23.712C56.9871 23.712 57.3391 23.6 57.6911 23.376C58.0431 23.152 58.3311 22.8 58.5551 22.32C59.0351 21.264 59.4671 20.048 59.8511 18.672C60.2351 17.296 60.5711 15.936 60.8591 14.592C61.1471 13.216 61.3871 12 61.5791 10.944C61.8031 9.856 61.9631 9.072 62.0591 8.592C61.5791 9.168 60.9871 9.984 60.2831 11.04C59.6111 12.096 58.9551 13.152 58.3151 14.208C57.7071 15.264 57.2431 16.112 56.9231 16.752C56.9551 17.488 56.6671 18.144 56.0591 18.72C55.4511 19.296 54.9231 19.888 54.4751 20.496V21.024C54.4751 21.152 54.4751 21.312 54.4751 21.504C54.5071 21.696 54.5391 21.872 54.5711 22.032C54.7311 22.544 55.0031 22.96 55.3871 23.28C55.8031 23.568 56.2191 23.712 56.6351 23.712ZM75.627 27.12C73.291 27.12 71.595 26.592 70.539 25.536C69.515 24.48 69.003 23.088 69.003 21.36C69.003 20.048 69.275 18.608 69.819 17.04C70.235 15.76 70.795 14.464 71.499 13.152C72.203 11.808 73.019 10.576 73.947 9.456C74.875 8.304 75.899 7.392 77.019 6.72C78.139 6.016 79.323 5.664 80.571 5.664C82.171 5.664 83.467 5.92 84.459 6.432C85.483 6.912 85.995 7.712 85.995 8.832C85.995 9.664 85.659 10.704 84.987 11.952C84.091 13.68 82.779 15.104 81.051 16.224C79.323 17.344 77.387 17.984 75.243 18.144C74.763 19.456 74.475 20.528 74.379 21.36C74.347 21.52 74.331 21.68 74.331 21.84C74.331 21.968 74.331 22.112 74.331 22.272C74.331 23.328 74.571 24.096 75.051 24.576C75.531 25.024 76.123 25.248 76.827 25.248C78.139 25.248 79.291 24.912 80.283 24.24C81.275 23.568 82.139 22.72 82.875 21.696C83.643 20.672 84.299 19.648 84.843 18.624C85.163 18.048 85.435 17.52 85.659 17.04C85.883 16.528 86.059 16.16 86.187 15.936C86.347 15.68 86.523 15.552 86.715 15.552C86.907 15.552 87.083 15.664 87.243 15.888C87.403 16.08 87.419 16.304 87.291 16.56C86.875 17.392 86.299 18.496 85.563 19.872C84.827 21.248 83.995 22.464 83.067 23.52C82.043 24.736 80.939 25.648 79.755 26.256C78.603 26.832 77.227 27.12 75.627 27.12ZM75.867 16.752C77.307 16.208 78.571 15.232 79.659 13.824C80.779 12.416 81.531 10.864 81.915 9.168C81.947 9.008 81.963 8.864 81.963 8.736C81.995 8.608 82.011 8.48 82.011 8.352C82.011 7.712 81.819 7.392 81.435 7.392C81.115 7.392 80.779 7.616 80.427 8.064C79.915 8.672 79.371 9.504 78.795 10.56C78.219 11.584 77.707 12.592 77.259 13.584C76.811 14.576 76.475 15.328 76.251 15.84L75.867 16.752Z" fill="white"/>
</svg>
